<svg width="167" height="135" viewBox="0 0 167 135" fill="none" xmlns="http://www.w3.org/2000/svg">
<g clip-path="url(#clip0_138_1133)">
<path d="M108.923 70.9752C109.877 69.8638 110.546 68.5363 110.871 67.1079C111.196 65.6795 111.168 64.1933 110.789 62.7783C110.41 61.3632 109.691 60.0621 108.695 58.9877C107.699 57.9133 106.456 57.0982 105.074 56.6129C105.345 55.1731 105.26 53.689 104.828 52.2894C104.395 50.8897 103.627 49.6167 102.591 48.5808C101.555 47.545 100.282 46.7775 98.8826 46.3451C97.4829 45.9127 95.9988 45.8283 94.559 46.0993C94.0742 44.7168 93.2591 43.4734 92.1847 42.4773C91.1103 41.4812 89.809 40.7623 88.3938 40.3832C86.9786 40.0041 85.4922 39.9762 84.0637 40.3018C82.6352 40.6275 81.3078 41.2969 80.1968 42.252C79.0854 41.2976 77.7579 40.6288 76.3295 40.3036C74.9011 39.9783 73.4149 40.0066 71.9998 40.3857C70.5848 40.7649 69.2837 41.4836 68.2093 42.4795C67.1349 43.4754 66.3197 44.7184 65.8345 46.1007C64.3948 45.8301 62.9109 45.9148 61.5114 46.3475C60.1119 46.7803 58.8391 47.5479 57.8034 48.5839C56.7677 49.6198 56.0004 50.8928 55.568 52.2924C55.1357 53.692 55.0513 55.176 55.3222 56.6156C53.94 57.1008 52.697 57.916 51.7011 58.9904C50.7052 60.0648 49.9865 61.3659 49.6073 62.781C49.2281 64.196 49.1999 65.6822 49.5251 67.1106C49.8503 68.539 50.5192 69.8665 51.4736 70.9779C50.5189 72.0892 49.8498 73.4168 49.5245 74.8454C49.1992 76.2739 49.2275 77.7603 49.6068 79.1754C49.9862 80.5906 50.7052 81.8918 51.7014 82.9661C52.6976 84.0404 53.941 84.8553 55.3236 85.3401C55.0524 86.7798 55.1367 88.2638 55.5691 89.6635C56.0015 91.0632 56.769 92.3362 57.8049 93.372C58.8409 94.4078 60.114 95.1752 61.5137 95.6074C62.9135 96.0397 64.3976 96.1237 65.8372 95.8524C66.3224 97.2346 67.1376 98.4776 68.212 99.4735C69.2864 100.469 70.5875 101.188 72.0025 101.567C73.4176 101.946 74.9037 101.975 76.3321 101.649C77.7605 101.324 79.088 100.655 80.1994 99.7011C81.3108 100.656 82.6384 101.325 84.0669 101.65C85.4955 101.975 86.9818 101.947 88.397 101.568C89.8122 101.188 91.1134 100.469 92.1877 99.4732C93.262 98.477 94.0769 97.2336 94.5617 95.851C96.0014 96.1221 97.4855 96.0378 98.8852 95.6054C100.285 95.173 101.558 94.4055 102.594 93.3696C103.63 92.3337 104.397 91.0607 104.83 89.6609C105.262 88.2612 105.346 86.7771 105.075 85.3375C106.458 84.8523 107.701 84.0372 108.697 82.9627C109.693 81.8883 110.411 80.5871 110.79 79.172C111.169 77.7568 111.197 76.2706 110.872 74.8422C110.547 73.4138 109.877 72.0864 108.923 70.9752Z" fill="#40997E"/>
<path d="M74.6511 82.7704L66.0646 74.1891C65.7387 73.8627 65.5557 73.4204 65.5557 72.9591C65.5557 72.4979 65.7387 72.0555 66.0646 71.7291L67.1078 70.6846C67.4342 70.3587 67.8765 70.1757 68.3378 70.1757C68.799 70.1757 69.2414 70.3587 69.5678 70.6846L75.8095 76.9223L90.5092 61.3013C90.8255 60.9657 91.2621 60.7693 91.723 60.7552C92.184 60.7411 92.6317 60.9106 92.9679 61.2263L94.0392 62.2373C94.3752 62.5537 94.5719 62.9905 94.5859 63.4518C94.6 63.9131 94.4303 64.3611 94.1142 64.6973L77.1527 82.7315C76.993 82.9017 76.8007 83.0381 76.5872 83.1325C76.3737 83.2269 76.1435 83.2774 75.9101 83.281C75.6768 83.2846 75.445 83.2413 75.2288 83.1536C75.0125 83.0658 74.816 82.9355 74.6511 82.7704Z" fill="white"/>
</g>
<rect width="3.32008" height="3.87438" rx="0.617986" transform="matrix(0.98191 -0.189347 0.189251 0.981929 85.606 20.5701)" fill="url(#paint0_linear_138_1133)"/>
<rect width="3.32026" height="3.87418" rx="0.617986" transform="matrix(0.873803 0.486281 -0.486085 0.873912 137.769 103.363)" fill="url(#paint1_linear_138_1133)"/>
<rect width="3.32026" height="3.87418" rx="0.617986" transform="matrix(0.873803 0.486281 -0.486085 0.873912 44.5874 129.035)" fill="url(#paint2_linear_138_1133)"/>
<rect x="63.4873" y="31.4536" width="1.53184" height="1.78762" rx="0.617986" fill="url(#paint3_linear_138_1133)"/>
<rect width="2.82128" height="3.292" rx="0.617986" transform="matrix(0.890958 0.454086 -0.453895 0.891055 135.479 18.8052)" fill="url(#paint4_linear_138_1133)"/>
<rect x="131.118" y="33.2617" width="1.53184" height="1.78762" rx="0.617986" fill="url(#paint5_linear_138_1133)"/>
<rect x="126.597" y="100.418" width="1.53184" height="1.78762" rx="0.617986" fill="url(#paint6_linear_138_1133)"/>
<rect x="138.864" y="74.5884" width="1.53184" height="1.78762" rx="0.617986" fill="url(#paint7_linear_138_1133)"/>
<rect x="156.294" y="51.343" width="1.53184" height="1.78762" rx="0.617986" fill="url(#paint8_linear_138_1133)"/>
<rect x="142.09" y="92.6697" width="1.53184" height="1.78762" rx="0.617986" fill="url(#paint9_linear_138_1133)"/>
<rect x="110.547" y="126.779" width="1.53184" height="1.78762" rx="0.617986" fill="url(#paint10_linear_138_1133)"/>
<rect width="2.18742" height="2.55246" rx="0.617986" transform="matrix(0.922838 -0.385187 0.385014 0.922911 45.8232 25.0093)" fill="url(#paint11_linear_138_1133)"/>
<rect width="2.18738" height="2.5525" rx="0.617986" transform="matrix(0.954493 0.298234 -0.298091 0.954538 4.27588 116.208)" fill="url(#paint12_linear_138_1133)"/>
<rect width="0.828389" height="0.966663" rx="0.414194" transform="matrix(0.954493 0.298234 -0.298091 0.954538 39.0898 40.3643)" fill="url(#paint13_linear_138_1133)"/>
<rect width="0.828389" height="0.966663" rx="0.414194" transform="matrix(0.954493 0.298234 -0.298091 0.954538 123.658 45.5312)" fill="url(#paint14_linear_138_1133)"/>
<rect width="0.828389" height="0.966663" rx="0.414194" transform="matrix(0.954493 0.298234 -0.298091 0.954538 157.873 60.3831)" fill="url(#paint15_linear_138_1133)"/>
<rect width="0.828389" height="0.966663" rx="0.414194" transform="matrix(0.954493 0.298234 -0.298091 0.954538 45.9419 100.655)" fill="url(#paint16_linear_138_1133)"/>
<rect width="0.828389" height="0.966663" rx="0.414194" transform="matrix(0.954493 0.298234 -0.298091 0.954538 15.8491 10.0149)" fill="url(#paint17_linear_138_1133)"/>
<rect width="1.57304" height="1.83561" rx="0.617986" transform="matrix(0.954493 0.298234 -0.298091 0.954538 21.9175 72.4683)" fill="url(#paint18_linear_138_1133)"/>
<rect width="1.57304" height="1.83561" rx="0.617986" transform="matrix(0.954493 0.298234 -0.298091 0.954538 23.9463 95.8223)" fill="url(#paint19_linear_138_1133)"/>
<rect width="1.57304" height="1.83561" rx="0.617986" transform="matrix(0.954493 0.298234 -0.298091 0.954538 70.3291 118.344)" fill="url(#paint20_linear_138_1133)"/>
<rect width="2.18738" height="2.5525" rx="0.617986" transform="matrix(0.954493 0.298234 -0.298091 0.954538 97.0161 9.36987)" fill="url(#paint21_linear_138_1133)"/>
<rect width="2.81802" height="3.2884" rx="0.617986" transform="matrix(0.954493 0.298234 -0.298091 0.954538 30.0962 31.3245)" fill="url(#paint22_linear_138_1133)"/>
<rect width="2.8187" height="3.28761" rx="0.617986" transform="matrix(-0.0462226 -0.998931 0.99893 -0.0462469 81.6655 3.80225)" fill="url(#paint23_linear_138_1133)"/>
<rect width="4.34592" height="5.07026" rx="0.617986" transform="matrix(-0.710445 0.703753 -0.703565 -0.710631 6.65479 58.8232)" fill="url(#paint24_linear_138_1133)"/>
<rect width="4.3454" height="5.07086" rx="0.617986" transform="matrix(0.979084 -0.203456 0.203353 0.979106 160.812 121.927)" fill="url(#paint25_linear_138_1133)"/>
<defs>
<linearGradient id="paint0_linear_138_1133" x1="1.66004" y1="0" x2="1.66004" y2="3.87438" gradientUnits="userSpaceOnUse">
<stop stop-color="#D20606"/>
<stop offset="1" stop-color="#785497"/>
</linearGradient>
<linearGradient id="paint1_linear_138_1133" x1="1.66013" y1="0" x2="1.66013" y2="3.87418" gradientUnits="userSpaceOnUse">
<stop stop-color="#D20606"/>
<stop offset="1" stop-color="#785497"/>
</linearGradient>
<linearGradient id="paint2_linear_138_1133" x1="1.66013" y1="0" x2="1.66013" y2="3.87418" gradientUnits="userSpaceOnUse">
<stop stop-color="#D20606"/>
<stop offset="1" stop-color="#785497"/>
</linearGradient>
<linearGradient id="paint3_linear_138_1133" x1="64.2532" y1="31.4536" x2="64.2532" y2="33.2412" gradientUnits="userSpaceOnUse">
<stop stop-color="#D20606"/>
<stop offset="1" stop-color="#785497"/>
</linearGradient>
<linearGradient id="paint4_linear_138_1133" x1="1.41064" y1="0" x2="1.41064" y2="3.292" gradientUnits="userSpaceOnUse">
<stop stop-color="#D20606"/>
<stop offset="1" stop-color="#785497"/>
</linearGradient>
<linearGradient id="paint5_linear_138_1133" x1="131.884" y1="33.2617" x2="131.884" y2="35.0493" gradientUnits="userSpaceOnUse">
<stop stop-color="#D20606"/>
<stop offset="1" stop-color="#785497"/>
</linearGradient>
<linearGradient id="paint6_linear_138_1133" x1="127.363" y1="100.418" x2="127.363" y2="102.206" gradientUnits="userSpaceOnUse">
<stop stop-color="#D20606"/>
<stop offset="1" stop-color="#785497"/>
</linearGradient>
<linearGradient id="paint7_linear_138_1133" x1="139.63" y1="74.5884" x2="139.63" y2="76.376" gradientUnits="userSpaceOnUse">
<stop stop-color="#D20606"/>
<stop offset="1" stop-color="#785497"/>
</linearGradient>
<linearGradient id="paint8_linear_138_1133" x1="157.06" y1="51.343" x2="157.06" y2="53.1306" gradientUnits="userSpaceOnUse">
<stop stop-color="#D20606"/>
<stop offset="1" stop-color="#785497"/>
</linearGradient>
<linearGradient id="paint9_linear_138_1133" x1="142.856" y1="92.6697" x2="142.856" y2="94.4573" gradientUnits="userSpaceOnUse">
<stop stop-color="#D20606"/>
<stop offset="1" stop-color="#785497"/>
</linearGradient>
<linearGradient id="paint10_linear_138_1133" x1="111.313" y1="126.779" x2="111.313" y2="128.566" gradientUnits="userSpaceOnUse">
<stop stop-color="#D20606"/>
<stop offset="1" stop-color="#785497"/>
</linearGradient>
<linearGradient id="paint11_linear_138_1133" x1="1.09371" y1="0" x2="1.09371" y2="2.55246" gradientUnits="userSpaceOnUse">
<stop stop-color="#D20606"/>
<stop offset="1" stop-color="#785497"/>
</linearGradient>
<linearGradient id="paint12_linear_138_1133" x1="1.09369" y1="0" x2="1.09369" y2="2.5525" gradientUnits="userSpaceOnUse">
<stop stop-color="#D20606"/>
<stop offset="1" stop-color="#785497"/>
</linearGradient>
<linearGradient id="paint13_linear_138_1133" x1="0.414194" y1="0" x2="0.414194" y2="0.966663" gradientUnits="userSpaceOnUse">
<stop stop-color="#D20606"/>
<stop offset="1" stop-color="#785497"/>
</linearGradient>
<linearGradient id="paint14_linear_138_1133" x1="0.414194" y1="0" x2="0.414194" y2="0.966663" gradientUnits="userSpaceOnUse">
<stop stop-color="#D20606"/>
<stop offset="1" stop-color="#785497"/>
</linearGradient>
<linearGradient id="paint15_linear_138_1133" x1="0.414194" y1="0" x2="0.414194" y2="0.966663" gradientUnits="userSpaceOnUse">
<stop stop-color="#D20606"/>
<stop offset="1" stop-color="#785497"/>
</linearGradient>
<linearGradient id="paint16_linear_138_1133" x1="0.414194" y1="0" x2="0.414194" y2="0.966663" gradientUnits="userSpaceOnUse">
<stop stop-color="#D20606"/>
<stop offset="1" stop-color="#785497"/>
</linearGradient>
<linearGradient id="paint17_linear_138_1133" x1="0.414194" y1="0" x2="0.414194" y2="0.966663" gradientUnits="userSpaceOnUse">
<stop stop-color="#D20606"/>
<stop offset="1" stop-color="#785497"/>
</linearGradient>
<linearGradient id="paint18_linear_138_1133" x1="0.786519" y1="0" x2="0.786519" y2="1.83561" gradientUnits="userSpaceOnUse">
<stop stop-color="#D20606"/>
<stop offset="1" stop-color="#785497"/>
</linearGradient>
<linearGradient id="paint19_linear_138_1133" x1="0.786519" y1="0" x2="0.786519" y2="1.83561" gradientUnits="userSpaceOnUse">
<stop stop-color="#D20606"/>
<stop offset="1" stop-color="#785497"/>
</linearGradient>
<linearGradient id="paint20_linear_138_1133" x1="0.786519" y1="0" x2="0.786519" y2="1.83561" gradientUnits="userSpaceOnUse">
<stop stop-color="#D20606"/>
<stop offset="1" stop-color="#785497"/>
</linearGradient>
<linearGradient id="paint21_linear_138_1133" x1="1.09369" y1="0" x2="1.09369" y2="2.5525" gradientUnits="userSpaceOnUse">
<stop stop-color="#D20606"/>
<stop offset="1" stop-color="#785497"/>
</linearGradient>
<linearGradient id="paint22_linear_138_1133" x1="1.40901" y1="0" x2="1.40901" y2="3.2884" gradientUnits="userSpaceOnUse">
<stop stop-color="#D20606"/>
<stop offset="1" stop-color="#785497"/>
</linearGradient>
<linearGradient id="paint23_linear_138_1133" x1="1.40935" y1="0" x2="1.40935" y2="3.28761" gradientUnits="userSpaceOnUse">
<stop stop-color="#D20606"/>
<stop offset="1" stop-color="#785497"/>
</linearGradient>
<linearGradient id="paint24_linear_138_1133" x1="2.17296" y1="0" x2="2.17296" y2="5.07026" gradientUnits="userSpaceOnUse">
<stop stop-color="#D20606"/>
<stop offset="1" stop-color="#785497"/>
</linearGradient>
<linearGradient id="paint25_linear_138_1133" x1="2.1727" y1="0" x2="2.1727" y2="5.07086" gradientUnits="userSpaceOnUse">
<stop stop-color="#D20606"/>
<stop offset="1" stop-color="#785497"/>
</linearGradient>
<clipPath id="clip0_138_1133">
<rect width="61.7986" height="61.7986" fill="white" transform="translate(49.2998 40.0771)"/>
</clipPath>
</defs>
</svg>
