<svg width="206" height="205" viewBox="0 0 206 205" fill="none" xmlns="http://www.w3.org/2000/svg">
<g filter="url(#filter0_d_9_35)">
<circle cx="103" cy="102.556" r="76.6667" stroke="#11894E" stroke-width="2.04444" stroke-linecap="round"/>
<circle cx="103" cy="102.556" r="51.1111" fill="#11894E"/>
<path d="M125.242 95.0428C124.496 95.0406 123.773 95.3048 123.203 95.7882C122.633 96.2718 122.251 96.9433 122.127 97.6832L116.725 83.6407H84.0737L78.6296 97.6832C78.5267 97.0883 78.2571 96.5354 77.8525 96.0895C77.448 95.6436 76.9253 95.3232 76.3459 95.1661C75.7666 95.0089 75.1547 95.0216 74.5822 95.2026C74.0098 95.3835 73.5006 95.7253 73.1146 96.1876C72.7286 96.6498 72.4818 97.2134 72.4033 97.812C72.3248 98.4106 72.4178 99.0194 72.6714 99.5667C72.925 100.114 73.3286 100.577 73.8348 100.901C74.341 101.225 74.9287 101.397 75.5287 101.397V117.529L83.0144 112.065H82.853C81.9567 112.066 81.0834 111.779 80.3602 111.246C79.6371 110.713 79.1019 109.962 78.8326 109.101C78.5632 108.241 78.5739 107.317 78.8629 106.463C79.1518 105.609 79.7041 104.87 80.4393 104.354C81.1744 103.838 82.0541 103.572 82.9502 103.594C83.8463 103.616 84.7119 103.925 85.4212 104.477C86.1305 105.028 86.6463 105.793 86.8935 106.66C87.1408 107.527 87.1065 108.451 86.7958 109.297L86.873 109.241L109.498 117.932L125.256 108.753V101.397C126.093 101.397 126.896 101.062 127.488 100.466C128.08 99.8705 128.413 99.0624 128.413 98.2198C128.413 97.3772 128.08 96.5691 127.488 95.9733C126.896 95.3775 126.093 95.0428 125.256 95.0428H125.242ZM102.09 98.2198H81.4358L85.996 86.4647H114.802L119.32 98.2198H116.83C116.83 98.1774 116.83 98.1351 116.83 98.0927C116.83 97.1192 116.639 96.1552 116.269 95.2558C115.899 94.3564 115.356 93.5392 114.672 92.8509C113.988 92.1625 113.176 91.6164 112.282 91.2439C111.389 90.8714 110.431 90.6796 109.463 90.6796C108.496 90.6796 107.538 90.8714 106.644 91.2439C105.751 91.6164 104.939 92.1625 104.254 92.8509C103.57 93.5392 103.028 94.3564 102.658 95.2558C102.287 96.1552 102.097 97.1192 102.097 98.0927C102.104 98.1351 102.111 98.1774 102.111 98.2198H102.09ZM104.545 98.2198C104.545 98.1774 104.545 98.1351 104.545 98.0927C104.545 96.782 105.063 95.525 105.984 94.5982C106.905 93.6713 108.154 93.1506 109.456 93.1506C110.759 93.1506 112.008 93.6713 112.929 94.5982C113.85 95.525 114.367 96.782 114.367 98.0927C114.367 98.1351 114.367 98.1774 114.367 98.2198H104.545ZM117.917 112.107C117.085 112.107 116.271 111.859 115.579 111.393C114.886 110.928 114.347 110.266 114.028 109.492C113.71 108.718 113.626 107.866 113.789 107.045C113.951 106.223 114.352 105.468 114.941 104.876C115.529 104.283 116.279 103.88 117.096 103.716C117.913 103.553 118.759 103.637 119.528 103.957C120.297 104.278 120.955 104.821 121.417 105.518C121.88 106.214 122.127 107.033 122.127 107.871C122.127 108.994 121.683 110.072 120.894 110.866C120.104 111.661 119.034 112.107 117.917 112.107Z" fill="white"/>
<path d="M133.431 103.628L130.813 110.103L129.77 108.355L109.31 120.441L86.75 111.473L71.5398 120.441L86.75 106.459L109.31 115.412L127.516 104.591L126.501 102.877L133.431 103.628Z" fill="white"/>
</g>
<defs>
<filter id="filter0_d_9_35" x="0.777815" y="0.333357" width="204.444" height="204.444" filterUnits="userSpaceOnUse" color-interpolation-filters="sRGB">
<feFlood flood-opacity="0" result="BackgroundImageFix"/>
<feColorMatrix in="SourceAlpha" type="matrix" values="0 0 0 0 0 0 0 0 0 0 0 0 0 0 0 0 0 0 127 0" result="hardAlpha"/>
<feOffset/>
<feGaussianBlur stdDeviation="12.2667"/>
<feComposite in2="hardAlpha" operator="out"/>
<feColorMatrix type="matrix" values="0 0 0 0 0 0 0 0 0 0 0 0 0 0 0 0 0 0 0.16 0"/>
<feBlend mode="normal" in2="BackgroundImageFix" result="effect1_dropShadow_9_35"/>
<feBlend mode="normal" in="SourceGraphic" in2="effect1_dropShadow_9_35" result="shape"/>
</filter>
</defs>
</svg>
